<?xml version="1.0" encoding="UTF-8"?>
<!-- Generator: Adobe Illustrator 24.2.1, SVG Export Plug-In . SVG Version: 6.00 Build 0)  -->
<svg version="1.1" id="Layer_1" xmlns="http://www.w3.org/2000/svg" xmlns:xlink="http://www.w3.org/1999/xlink" x="0px" y="0px" viewBox="0 0 683.4 684.9" style="enable-background:new 0 0 683.4 684.9;" xml:space="preserve">
<style type="text/css">
	.st0{fill:#BF452B;}
	.st1{fill:#EBE4DB;}
	.st2{fill:#E0A74A;}
</style>
<g>
	<path class="st0" d="M481,681H204.3C94,681,4.5,591.6,4.5,481.3V204.6C4.5,94.2,94,4.8,204.3,4.8H481   c110.3,0,199.8,89.4,199.8,199.8v276.7C680.8,591.6,591.3,681,481,681z"/>
</g>
<g>
	<g>
		<path class="st1" d="M251.6,219.8c4.5-10.2,11.6-17.1,21.7-20.5c2.8-1,0.9-2.4,0.3-3.5c-6.7-13.6-13.4-27.2-20.2-40.7    c-1.8-3.5-3.5-7.1-5.3-10.6c-5.2-10.5-1.8-21.6,8.1-26.5c9.6-4.8,20.4-0.8,25.6,9.5c24.4,48.2,48.7,96.4,73,144.7    c1.5,3.1,2.7,3.6,5.9,2.1c19.5-9.2,39.1-18,58.5-27.2c11.5-5.5,21.5-3.8,30.9,4.7c19.4,17.6,39,34.8,58.5,52.3    c11.1,10,9.9,26.3-2.2,34.1c-8.2,5.3-18.2,4.4-26.1-2.6c-14.7-13-29.4-26-44-39.2c-2.5-2.3-4.4-2.7-7.2-0.7    c-2.8,2-5.8,3.7-8.8,5.4c-1.5,0.9-2.1,1.6-0.6,3.1c4.9,5.1,6.5,11.3,6.6,18.2c0.2,28.4,0.3,56.9,0.9,85.3    c0.3,16.2-14.2,25-26.6,20.5c-8.1-2.9-12.9-9.8-13.1-19.2c-0.2-13-0.3-26-0.4-39c-0.1-6.8-0.2-13.5-0.1-20.3    c0-2.7-0.6-3.3-3.3-2.2c-10.5,4.3-21,8.5-31.6,12.6c-19.7,7.7-37.2,2.9-50.6-13.5C259,294.4,216.5,242.2,174,190    c-9-11.1-5.3-26.3,7.5-30.7c8.3-2.8,15.3-0.4,21,6c12,13.4,24,26.8,36.1,40.1C242.8,210.1,247,214.7,251.6,219.8z M319.5,227.4    c-0.3,0.1-0.6,0.1-0.9,0.2c0,1.7,0.1,3.5,0,5.2c-0.1,18-14.1,32.5-32.8,34c-17,1.4-33.3-11.7-35.9-28.9c-0.3-2.3-1.2-4-2.7-5.7    c-11-12.2-22-24.5-33-36.7c-6.9-7.7-13.8-15.3-20.7-23c-2.3-2.6-5.1-3.4-8.3-2.3c-2.8,0.9-4.3,3.1-4.8,6c-0.4,2.8,1,4.9,2.7,6.9    c42.8,52.5,85.5,105,128.3,157.5c9.2,11.3,22,14.6,35.7,9.2c14-5.5,27.9-11.1,41.9-16.6c3.9-1.5,6.8-0.8,8.4,1.9    c0.9,1.6,0.9,3.4,0.9,5.2c0.2,22.6,0.4,45.2,0.6,67.7c0,3.2,0.4,6.1,3.2,8.2c2.7,2,5.6,2.4,8.7,1c3.7-1.7,4.8-4.9,4.8-8.8    c-0.3-28.7-0.5-57.4-0.8-86.1c-0.1-10.6-7.1-15.8-17.2-12.9c-15.1,4.2-30.1,8.5-45.2,12.7c-4.4,1.2-7.3-0.1-8.3-3.6    s0.8-6.2,5.2-7.4c13.1-3.7,26.3-7.2,39.3-11.1c9.7-2.9,20.4-3,28.7-10.1c3.3-2.8,7.3-4.6,11-6.9c5.2-3.2,6.6-3.1,11.1,0.9    c16.1,14.3,32.2,28.6,48.4,42.9c4.9,4.3,10.8,4.3,14.6-0.1c3.9-4.4,3.3-10.1-1.7-14.5c-19.6-17.5-39.2-35-58.8-52.5    c-5.3-4.7-10.6-5.5-17.1-2.4c-22,10.4-44.1,20.5-66.2,30.6c-5.3,2.4-7.6,1.6-10.2-3.5c-2.5-5-5.1-10-7.6-15    C333.6,255.4,326.5,241.4,319.5,227.4z M261.2,232.1c0.1,13.3,10.2,23.3,23.2,23.2c12.7-0.2,23-10.7,22.9-23.4    c-0.2-12.7-10.7-22.9-23.5-22.8C271.1,209.3,261,219.4,261.2,232.1z M308.8,207.8c0.5-0.8,0-1.4-0.2-1.9    c-12.4-24.7-24.9-49.3-37.3-73.9c-2.1-4.1-6.2-5.4-10-3.7c-3.8,1.8-5.2,6.2-3.1,10.5c9.3,18.9,18.8,37.8,28.2,56.8    c0.6,1.2,1.2,2.3,2.7,2.5C296.7,199,303.2,202.6,308.8,207.8z"/>
	</g>
	<g>
		<path class="st1" d="M391.8,164.7c0.2,22.1,0.4,44.1,0.6,66.2c0,1.3,0.1,2.6-0.2,3.8c-0.5,2.7-2.3,4.2-4.9,4.5    c-2.5,0.3-4.4-0.9-5.6-3.1c-0.8-1.5-0.7-3.2-0.8-4.9c-0.4-44-0.8-88-1.2-132c0-1.6-0.2-3.3,0.5-4.9c1.1-2.7,3.2-3.9,6.1-3.6    c2.8,0.3,4.5,1.9,4.7,4.7c0.3,3.7,0.2,7.4,0.3,11.1C391.4,125.9,391.6,145.3,391.8,164.7L391.8,164.7z"/>
	</g>
	<g>
		<path class="st1" d="M203.5,106.4c-0.1-10.7-0.2-21.4-0.3-32.1c0-4.7,1.8-7.1,5.4-7.2c3.7-0.1,5.9,2.5,6,7.2    c0.2,21.4,0.4,42.8,0.6,64.3c0,4.5-2.1,7.2-5.5,7.3c-3.6,0.2-5.8-2.5-5.9-7.3C203.6,127.8,203.6,117.1,203.5,106.4z"/>
	</g>
	<g>
		<path class="st1" d="M432.8,180.8c-0.1-9-0.3-18.1-0.2-27.1c0-5,4.2-7.8,8.1-5.8c2.4,1.2,3.3,3.4,3.3,6    c0.2,17.9,0.4,35.9,0.5,53.8c0,4.1-2.4,6.6-5.9,6.6c-3.3,0-5.5-2.4-5.6-6.4C432.9,198.9,432.9,189.9,432.8,180.8z"/>
	</g>
	<g>
		<path class="st1" d="M341.6,133.8c0,4.2,0.2,8.4,0.1,12.6c-0.1,4-2.1,6.2-5.6,6.3c-3.3,0-5.7-2.1-5.8-5.8    c-0.2-8.8-0.3-17.6-0.3-26.4c0-3.5,2.6-6,5.7-6s5.5,2.4,5.7,5.9C341.6,124.9,341.6,129.3,341.6,133.8z"/>
	</g>
	<g>
		<path class="st1" d="M390.8,66.1c0,1.5,0.1,3.1,0,4.6c-0.2,3.1-2,4.9-5.1,5.2c-3.1,0.3-5.3-1.2-6-4.2c-0.8-3.5-0.8-7.1-0.1-10.6    c0.6-3.1,2.9-4.8,6.1-4.5c3.1,0.3,4.8,2.2,5,5.3C390.9,63.3,390.8,64.7,390.8,66.1L390.8,66.1z"/>
	</g>
	<g>
		<path class="st1" d="M444,126.6c-0.1,1.8,0,3.6-0.4,5.3c-0.7,3-2.7,4.6-5.8,4.4c-3.1-0.2-4.9-2-5.2-5c-0.3-2.8-0.3-5.6-0.2-8.4    c0.1-3.4,1.9-5.5,5.4-5.7c3.3-0.2,5.6,2,6,5.6c0.1,1.3,0,2.5,0.1,3.8C443.9,126.6,443.9,126.6,444,126.6z"/>
	</g>
	<g>
		<path class="st1" d="M341.3,99.9c0.1,4-2.3,6.7-5.7,6.7c-3.3,0-5.7-2.6-5.8-6.3c-0.1-3.9,2.2-6.6,5.8-6.6    C339.2,93.7,341.2,95.9,341.3,99.9z"/>
	</g>
</g>
<g>
	<g>
		<path class="st2" d="M175.5,472.7l-9.6,47.8h-6.2l1.6-7.6c-4.7,5.6-11.1,8-18.4,8c-10.8,0-17-5.8-17-15.7c0-1.7,0.1-3.5,0.5-5.3    l5.4-27.2h6.5l-5.4,27.2c-0.3,1.6-0.5,2.9-0.5,4.3c0,6.9,4,10.9,12.2,10.9c10.1,0,17.1-5.6,19.3-16.7l5.1-25.7L175.5,472.7    L175.5,472.7z"/>
		<path class="st2" d="M142.9,522.9c-11.9,0-19-6.6-19-17.7c0-2.1,0.2-4,0.6-5.7l5.8-28.8h10.6l-6,30.2c-0.2,1.2-0.4,2.3-0.4,3.3    c0,6,3.3,8.9,10.2,8.9c9.4,0,15.4-5.2,17.3-15.1l5.4-27.3H178l-10.4,51.8h-10.3l0.8-4C153.9,521.4,148.7,522.9,142.9,522.9z     M133.5,474.7l-5.1,25.6c-0.3,1.5-0.5,3.1-0.5,4.9c0,8.8,5.3,13.7,15,13.7c7.1,0,12.8-2.5,16.9-7.3l5.1-6.1l-2.6,13h2.1l8.8-43.8    h-2.5l-4.7,24c-2.3,11.8-9.9,18.3-21.3,18.3c-9,0-14.2-4.7-14.2-12.9c0-1.4,0.2-2.7,0.4-4l0.1-0.6l5-24.9H133.5z"/>
	</g>
	<g>
		<path class="st2" d="M203.5,462.7l-5.1,25h33l-1.2,5.8h-33l-5.3,26.9h-6.6l12.7-63.6h43.7l-1.2,5.8H203.5z"/>
		<path class="st2" d="M193.6,522.5h-10.7l13.5-67.6h47.7l-2,9.8h-37.1l-4.2,21h33l-2,9.8h-33L193.6,522.5z M187.8,518.5h2.5    l5.3-26.9h33l0.4-1.8h-33l5.9-29h37l0.4-1.8h-39.6L187.8,518.5z"/>
	</g>
	<g>
		<path class="st2" d="M293,472.7l-9.6,47.8h-6.2l1.6-7.5c-4.5,5.1-10.9,8-18.7,8c-12.3,0-20.9-7.6-20.9-20.2    c0-16.3,11.4-28.4,26.9-28.4c9.1,0,15.4,3.8,18.1,10.4l1.9-10h6.7V472.7z M282.3,492.8c0-9.3-5.7-14.9-15.7-14.9    c-11.9,0-20.7,9.5-20.7,22.4c0,9.3,5.7,14.8,15.7,14.8C273.5,515.2,282.3,505.9,282.3,492.8z"/>
		<path class="st2" d="M260.1,523c-13.7,0-22.9-8.9-22.9-22.2c0-17.3,12.4-30.4,28.9-30.4c7.5,0,13.4,2.4,17.2,6.9l1.3-6.5h8.4v1.7    l2,0.2v2.1h-0.4l-9.6,47.7h-10.3l0.8-4.1C271.2,521.4,266,523,260.1,523z M266.2,474.4c-14.5,0-24.9,11.1-24.9,26.4    c0,11.1,7.4,18.2,18.9,18.2c6.9,0,12.8-2.5,17.2-7.4l4.9-5.5l-2.6,12.4h2.1l8.8-43.7h-2.6l-2.9,14.9l-2.5-6.2    C280.1,477.7,274.3,474.4,266.2,474.4z M261.8,517.1c-0.1,0-0.2,0-0.3,0c-11,0-17.7-6.3-17.7-16.8c0-13.9,9.8-24.4,22.7-24.4    c11.1,0,17.7,6.3,17.7,16.9c0,7.2-2.5,13.6-7,18.1C273.2,514.9,267.7,517.1,261.8,517.1z M266.6,479.9c-10.9,0-18.7,8.6-18.7,20.4    c0,8.2,4.9,12.8,13.7,12.8c5,0.1,9.5-1.7,12.9-5.1c3.8-3.7,5.8-9.1,5.8-15.2C280.3,484.5,275.4,479.9,266.6,479.9z"/>
	</g>
	<g>
		<path class="st2" d="M314.9,453h6.5l-13.5,67.4h-6.5L314.9,453z"/>
		<path class="st2" d="M309.6,522.4H299l14.3-71.4h10.6L309.6,522.4z M303.9,518.4h2.4L319,455h-2.4L303.9,518.4z"/>
	</g>
	<g>
		<path class="st2" d="M339.4,453h6.5l-13.5,67.4h-6.5L339.4,453z"/>
		<path class="st2" d="M334.1,522.4h-10.6l14.3-71.4h10.6L334.1,522.4z M328.4,518.4h2.4l12.7-63.4h-2.4L328.4,518.4z"/>
	</g>
	<g>
		<path class="st2" d="M395.4,503.5h-35.5l-11,17h-7.3l41.8-63.6h6.6l16.3,63.6h-6.7L395.4,503.5z M394.1,498l-8.7-34.3L363.3,498    H394.1z"/>
		<path class="st2" d="M409,522.5h-10.9l-4.3-17H361l-11,17h-12.1l44.5-67.6h9.2L409,522.5z M401.2,518.5h2.6l-15.3-59.6h-2.2    l10.4,41.1h-37.1l26.5-41.1h-1.5l-39.2,59.6h2.5l11-17h38.1L401.2,518.5z M366.9,496h24.6l-6.9-27.4L366.9,496z"/>
	</g>
	<g>
		<path class="st2" d="M428.9,453h6.5l-13.5,67.4h-6.5L428.9,453z"/>
		<path class="st2" d="M423.6,522.4H413l14.3-71.4h10.6L423.6,522.4z M417.9,518.4h2.4L433,455h-2.4L417.9,518.4z"/>
	</g>
	<g>
		<path class="st2" d="M445.9,498.3c-0.1,0.6-0.1,1.3-0.1,1.9c0,9.6,5.4,14.9,16.5,14.9c6.3,0,12-2.3,15.7-6l2.9,4.7    c-4.4,4.4-11.7,7.1-19,7.1c-13.9,0-22.3-7.8-22.3-20.3c0-16.3,11.1-28.2,26.4-28.2c12.6,0,20.9,7.5,20.9,20.2c0,1.9-0.3,4-0.6,5.8    h-40.2V498.3z M446.6,493.5h34.1c0.1-0.6,0.1-1.2,0.1-1.7c0-9.1-6.1-14.1-15-14.1C456.1,477.7,449,484,446.6,493.5z"/>
		<path class="st2" d="M461.7,523c-15,0-24.3-8.6-24.3-22.3c0-17.5,12-30.2,28.4-30.2c13.9,0,22.9,8.7,22.9,22.2    c0,1.9-0.2,4.2-0.7,6.2l-0.3,1.6h-39.9c0.1,8.6,4.8,12.7,14.5,12.7c5.6,0,10.9-2,14.3-5.4l1.8-1.8l5,8.2l-1.1,1.1    C477.4,520.1,469.6,523,461.7,523z M465.9,474.4c-14.2,0-24.4,11-24.4,26.2c0,11.5,7.6,18.3,20.3,18.3c6.2,0,12.4-2.1,16.5-5.5    l-0.8-1.2c-4,3.1-9.5,4.9-15.2,4.9c-11.9,0-18.5-6-18.5-16.9c0-0.7,0-1.5,0.2-2.3l2,0.2v-1.7h38.5c0.2-1.3,0.3-2.6,0.3-3.8    C484.7,481.2,477.7,474.4,465.9,474.4z M482.3,495.5H444l0.6-2.5c2.7-10.7,10.8-17.3,21.1-17.3c10.3,0,17,6.3,17,16.1    c0,0.6,0,1.2-0.2,2.1L482.3,495.5z M449.3,491.5h29.5c-0.1-7.4-5-11.8-13-11.8C458.1,479.7,452.1,484.1,449.3,491.5z"/>
	</g>
	<g>
		<path class="st2" d="M528.4,472.3l-1.2,6.2c-0.6,0-1-0.1-1.8-0.1c-10.2,0-17,5.8-19.3,17.7l-4.8,24.2h-6.5l9.5-47.8h6.2l-1.7,8.7    C513.1,475.2,519.4,472.3,528.4,472.3z"/>
		<path class="st2" d="M503,522.4h-10.6l10.2-51.8H513l-0.9,4.4c4.2-3.2,9.5-4.7,16.3-4.7h2.4l-1.9,10.2h-1.7c-0.4,0-0.7,0-1.1-0.1    c-0.2,0-0.4-0.1-0.8-0.1c-9.4,0-15.2,5.4-17.3,16.1L503,522.4z M497.3,518.4h2.4l4.5-22.6c0.6-3.1,1.5-5.8,2.6-8.1l-1.7,2.4    l3-15.5H506L497.3,518.4z M526,474.4c-6.8,0.4-11.7,2.9-15.1,7.5c3.6-3.6,8.5-5.5,14.6-5.5c0.1,0,0.1,0,0.2,0L526,474.4z"/>
	</g>
	<g>
		<path class="st2" d="M542.9,506c-0.1,1-0.4,2.1-0.4,3c0,4.1,2.3,6.3,6.9,6.3c2.6,0,5.2-0.8,7.4-2.5l1.6,4.9c-3,2.3-7,3.1-10.6,3.1    c-7.1,0-11.7-4.1-11.7-10.9c0-1.2,0.1-2.5,0.4-3.8l5.6-28.1h-8.4l1-5.4h8.6l2.1-10.5h6.5l-2.1,10.5h14.5l-1,5.4h-14.5L542.9,506z"/>
		<path class="st2" d="M547.7,522.9c-8.3,0-13.7-5.1-13.7-12.9c0-1.3,0.1-2.7,0.4-4.1l5.1-25.7h-8.4l1.8-9.4h8.6l2.1-10.5h10.6    l-2.1,10.5h14.5l-1.8,9.4h-14.5l-5.4,26.2c0,0.4-0.1,0.7-0.2,1.1c-0.1,0.6-0.2,1.1-0.2,1.6c0,2.1,0.6,4.3,4.9,4.3    c2.3,0,4.4-0.7,6.2-2.1l2.3-1.7l2.8,9l-1.1,0.9C555.8,522.3,551.1,522.9,547.7,522.9z M536,476.1h8.4l-6,30.5    c-0.2,1.1-0.4,2.3-0.4,3.4c0,5.6,3.6,8.9,9.7,8.9c2.4,0,5.6-0.4,8.3-1.9l-0.3-1.1c-1.9,0.9-4,1.4-6.2,1.4c-5.6,0-8.9-3-8.9-8.3    c0-0.8,0.1-1.5,0.2-2.2c0.1-0.3,0.1-0.7,0.2-1l0-0.2l6-29.5h14.5l0.3-1.4h-14.5l2.1-10.5h-2.4l-2.1,10.5h-8.5L536,476.1z"/>
	</g>
</g>
<g>
	<path class="st2" d="M519.3,629.3h-127c-24.4,0-44.3-19.8-44.3-44.3l0,0c0-24.4,19.8-44.3,44.3-44.3h171.3V585   C563.5,609.4,543.7,629.3,519.3,629.3z"/>
</g>
<g>
	<g>
		<path class="st0" d="M422.6,592.8c0,9.1-7.8,13.5-19,13.5h-21.6l8.6-42.9h19.8c8.9,0,14,3.4,14,9.6c0,5.5-3.3,9.3-7.6,11.1    C420.5,585.3,422.6,588.4,422.6,592.8z M414.6,592.8c0-3.7-2.8-5.2-7.8-5.2h-13.2l-2.4,12.4H404    C410.7,599.9,414.6,597.5,414.6,592.8z M397.4,569.5l-2.4,11.9h11.4c6,0,9.8-2.4,9.8-7.2c0-3.3-2.8-4.7-7.5-4.7L397.4,569.5    L397.4,569.5z"/>
	</g>
	<g>
		<path class="st0" d="M461.9,592.1h-26c0.2,5.2,3.1,8,9.4,8c3.7,0,7.2-1.3,9.4-3.4l3.3,5.4c-3.4,3.1-8.5,4.6-13.5,4.6    c-9.9,0-16.1-5.7-16.1-14.5c0-11.1,8-19.2,18.9-19.2c9.1,0,15.1,5.4,15.1,14.3C462.4,589,462.2,590.7,461.9,592.1z M436.6,587.1    h18.9c0-5-3.3-7.8-8.5-7.8C441.6,579.3,437.9,582.2,436.6,587.1z"/>
	</g>
	<g>
		<path class="st0" d="M476.9,595.2c0,0.5-0.2,1-0.2,1.5c0,2.3,1.1,3.7,3.9,3.7c1.5,0,3.1-0.5,4.2-1.3l1.3,5.7c-2.3,1.5-5.2,2-8,2    c-5.5,0-9.4-3.3-9.4-8.8c0-0.8,0-1.6,0.3-2.6l3.1-15.4h-5.4l1.3-6.2h5.4l1.5-7.5h7.6l-1.5,7.5h8.8l-1.3,6.2h-8.8L476.9,595.2z"/>
	</g>
	<g>
		<path class="st0" d="M529.5,573.4l-6.5,32.8h-7.3l0.7-3.4c-2.8,2.4-6.3,3.7-10.7,3.7c-8,0-14.5-5.4-14.5-14.5    c0-11.2,8-19.2,18.5-19.2c5,0,8.9,1.8,11.2,5.2l1-4.9h7.6V573.4z M519,587.9c0-5-3.1-8.3-8.6-8.3c-6.5,0-11.4,5-11.4,12.4    c0,5,3.1,8.3,8.6,8.3C514.2,600.1,519,595,519,587.9z"/>
	</g>
</g>
</svg>